<svg width="127.542969" height="48.000000" viewBox="0 0 127.543 48" fill="none" xmlns="http://www.w3.org/2000/svg" xmlns:xlink="http://www.w3.org/1999/xlink">
	<desc>
			Created with Pixso.
	</desc>
	<defs>
		<clipPath id="clip92_83">
			<rect rx="-0.500000" width="126.542854" height="47.000000" transform="translate(0.500000 0.500000)" fill="white" fill-opacity="0"/>
		</clipPath>
	</defs>
	<rect rx="-0.500000" width="126.542854" height="47.000000" transform="translate(0.500000 0.500000)" fill="#FFFFFF" fill-opacity="0"/>
	<g clip-path="url(#clip92_83)">
		<path d="M49.04 50.74L22.49 50.74C32.13 47.19 41.1 42.03 49.04 35.49L49.04 50.74Z" fill="#DB1515" fill-opacity="1.000000" fill-rule="evenodd"/>
		<path d="M49.04 13.95L49.04 28.98C43.68 33.55 37.97 37.7 31.97 41.39C24.72 45.84 17.31 49.22 9.46 49.77C6.03 50.02 0.31 49.52 0.01 45.15C-0.5 37.77 16.31 23.78 22.09 20.68C19.55 23.1 17.86 25.58 17.64 26.89C17.49 27.76 18.52 28.18 19.46 27.35C30.72 18.08 40.78 13.68 49.04 13.95Z" fill="#005958" fill-opacity="1.000000" fill-rule="evenodd"/>
		<path d="M0.02 2.74L0.02 34.68C7.96 24.56 19.75 16.29 31 10.93C33.67 9.67 36.59 10.75 35.19 13.84C38.66 12.05 46 10.43 49.04 10.51L49.04 2.74L0.02 2.74Z" fill="#005958" fill-opacity="1.000000" fill-rule="evenodd"/>
		<path d="M115.92 26.15C116.93 26.17 117.92 25.91 118.79 25.41C119.65 24.91 120.35 24.18 120.82 23.3C121.33 22.34 121.59 21.26 121.57 20.17C121.59 19.08 121.33 18 120.82 17.04C120.35 16.17 119.65 15.44 118.79 14.94C117.91 14.45 116.93 14.19 115.92 14.19C114.92 14.19 113.93 14.45 113.06 14.94C112.2 15.44 111.5 16.17 111.03 17.04C110.52 18.01 110.27 19.09 110.29 20.18C110.27 21.26 110.53 22.34 111.03 23.29C111.5 24.17 112.2 24.9 113.06 25.4C113.93 25.9 114.92 26.16 115.92 26.15ZM115.92 31.07C113.85 31.11 111.81 30.62 109.97 29.67C108.24 28.77 106.8 27.4 105.8 25.72C104.81 24.04 104.3 22.11 104.33 20.16C104.3 18.2 104.81 16.28 105.81 14.6C106.81 12.92 108.26 11.55 109.99 10.65C111.84 9.72 113.88 9.24 115.95 9.24C118.01 9.24 120.05 9.72 121.9 10.65C123.63 11.55 125.08 12.91 126.08 14.59C127.08 16.27 127.59 18.2 127.56 20.16C127.59 22.12 127.08 24.05 126.07 25.73C125.07 27.41 123.62 28.77 121.88 29.67C120.04 30.62 117.99 31.11 115.92 31.07ZM93.59 26.39C94.39 26.45 95.19 26.24 95.86 25.8C96.12 25.6 96.32 25.34 96.46 25.04C96.59 24.74 96.65 24.41 96.64 24.09C96.64 22.61 95.62 21.87 93.59 21.87L89.35 21.87L89.35 26.39L93.59 26.39ZM83.53 9.66L100.98 9.66L100.98 14.25L89.35 14.25L89.35 17.62L94.75 17.62C97.27 17.62 99.21 18.16 100.58 19.24C101.95 20.32 102.62 21.87 102.61 23.89C102.61 25.99 101.85 27.67 100.34 28.85C98.83 30.02 96.7 30.63 93.98 30.63L83.5 30.63L83.53 9.66ZM80.73 25.95L80.73 34.94L75.32 34.94L75.32 30.65L58.17 30.65L58.17 9.66L64 9.66L64 25.95L72.03 25.95L72.03 9.66L77.86 9.66L77.86 25.95L80.73 25.95Z" fill="#005958" fill-opacity="1.000000" fill-rule="evenodd"/>
		<path d="M123.74 44.26C124.05 44.27 124.35 44.19 124.61 44.03C124.86 43.89 125.04 43.66 125.15 43.39L125.15 42.71L123.79 42.71C123.04 42.71 122.67 42.96 122.67 43.47C122.66 43.58 122.68 43.69 122.73 43.79C122.78 43.89 122.86 43.98 122.95 44.05C123.18 44.2 123.46 44.28 123.74 44.26ZM123.94 39.95C124.5 39.91 125.06 40.09 125.49 40.45C125.68 40.65 125.83 40.88 125.92 41.14C126.01 41.39 126.05 41.67 126.03 41.94L126.03 44.88L125.19 44.88L125.19 44.24C125.04 44.47 124.82 44.66 124.56 44.76C124.26 44.89 123.93 44.95 123.6 44.94C123.13 44.97 122.67 44.83 122.29 44.55C122.13 44.43 122 44.27 121.91 44.09C121.83 43.9 121.79 43.7 121.79 43.5C121.79 43.31 121.83 43.11 121.91 42.93C121.99 42.75 122.11 42.59 122.26 42.46C122.7 42.17 123.22 42.03 123.75 42.07L125.15 42.07L125.15 41.9C125.16 41.74 125.13 41.58 125.08 41.42C125.02 41.27 124.93 41.14 124.81 41.02C124.54 40.8 124.19 40.69 123.84 40.72C123.56 40.72 123.27 40.77 123 40.86C122.75 40.95 122.52 41.08 122.31 41.24L121.93 40.58C122.2 40.37 122.5 40.21 122.83 40.12C123.19 40 123.57 39.95 123.94 39.95ZM120.5 40L120.5 44.89L119.62 44.89L119.62 40.77L117.52 40.77L117.47 41.87C117.45 42.42 117.39 42.97 117.29 43.52C117.24 43.9 117.09 44.26 116.87 44.57C116.78 44.7 116.66 44.8 116.52 44.87C116.37 44.94 116.22 44.98 116.06 44.97C115.87 44.97 115.69 44.94 115.51 44.88L115.57 44.14C115.64 44.16 115.72 44.17 115.79 44.17C115.9 44.17 116.01 44.14 116.11 44.09C116.21 44.03 116.29 43.95 116.34 43.84C116.47 43.61 116.55 43.35 116.58 43.08C116.61 42.78 116.65 42.36 116.68 41.82L116.76 40.01L120.5 40ZM112.56 44.17C112.85 44.17 113.14 44.1 113.4 43.95C113.64 43.81 113.84 43.6 113.97 43.34C114.11 43.06 114.18 42.76 114.18 42.44C114.18 42.13 114.11 41.82 113.97 41.54C113.83 41.29 113.63 41.08 113.38 40.94C113.13 40.8 112.84 40.73 112.55 40.73C112.25 40.73 111.97 40.8 111.71 40.94C111.46 41.08 111.26 41.29 111.12 41.54C110.98 41.82 110.9 42.13 110.9 42.44C110.9 42.76 110.98 43.07 111.12 43.34C111.26 43.6 111.46 43.81 111.71 43.95C111.97 44.1 112.26 44.18 112.56 44.17ZM112.56 44.94C112.1 44.95 111.65 44.84 111.26 44.62C110.88 44.41 110.56 44.11 110.35 43.73C110.14 43.34 110.02 42.89 110.02 42.44C110.02 41.99 110.14 41.55 110.35 41.16C110.56 40.78 110.88 40.47 111.26 40.27C111.66 40.06 112.1 39.95 112.56 39.95C113.01 39.95 113.46 40.06 113.86 40.27C114.23 40.48 114.55 40.78 114.76 41.16C114.97 41.55 115.08 41.99 115.08 42.44C115.08 42.89 114.97 43.33 114.76 43.73C114.54 44.1 114.23 44.41 113.86 44.62C113.46 44.84 113.01 44.95 112.56 44.94ZM107.04 42.84L106.03 42.84L106.03 44.91L105.17 44.91L105.17 40L106.05 40L106.05 42.06L107.08 42.06L108.66 40L109.6 40L107.76 42.35L109.73 44.88L108.7 44.88L107.04 42.84ZM103.44 40.02L103.44 44.91L96.51 44.91L96.51 40L97.39 40L97.39 44.11L99.54 44.11L99.54 40L100.42 40L100.42 44.11L102.56 44.11L102.56 40L103.44 40.02ZM92.66 41.99L95.11 41.99L95.11 42.75L92.64 42.75L92.66 41.99ZM89.97 44.96C89.51 44.97 89.05 44.86 88.64 44.64C88.26 44.43 87.94 44.12 87.73 43.75C87.51 43.35 87.4 42.91 87.4 42.46C87.4 42.01 87.51 41.57 87.73 41.17C87.94 40.8 88.26 40.49 88.64 40.29C89.05 40.07 89.51 39.96 89.97 39.97C90.38 39.96 90.78 40.06 91.15 40.24C91.49 40.41 91.77 40.68 91.95 41.01L91.28 41.43C91.14 41.21 90.94 41.03 90.71 40.91C90.48 40.79 90.22 40.73 89.96 40.73C89.66 40.73 89.38 40.8 89.12 40.95C88.87 41.08 88.66 41.29 88.52 41.55C88.37 41.82 88.3 42.13 88.3 42.45C88.3 42.76 88.37 43.08 88.52 43.36C88.65 43.62 88.85 43.83 89.1 43.98C89.36 44.12 89.65 44.19 89.94 44.19C90.2 44.19 90.46 44.13 90.69 44.01C90.93 43.89 91.13 43.71 91.26 43.49L91.93 43.91C91.75 44.24 91.47 44.51 91.13 44.69C90.77 44.86 90.37 44.95 89.97 44.94L89.97 44.96ZM84.07 40.7C83.68 40.69 83.3 40.83 83.01 41.09C82.72 41.35 82.54 41.71 82.51 42.1L85.63 42.1C85.6 41.72 85.42 41.36 85.13 41.09C84.84 40.83 84.46 40.69 84.07 40.7ZM86.48 42.47C86.48 42.56 86.47 42.65 86.46 42.74L82.51 42.74C82.53 42.94 82.59 43.14 82.69 43.31C82.79 43.49 82.92 43.65 83.08 43.78C83.42 44.04 83.84 44.18 84.27 44.17C84.54 44.18 84.8 44.13 85.04 44.03C85.28 43.93 85.5 43.77 85.68 43.58L86.16 44.15C85.94 44.41 85.65 44.62 85.33 44.74C84.98 44.88 84.6 44.95 84.23 44.94C83.75 44.95 83.28 44.84 82.86 44.62C82.47 44.42 82.15 44.12 81.94 43.74C81.73 43.34 81.62 42.9 81.62 42.45C81.62 42 81.73 41.56 81.94 41.16C82.14 40.79 82.44 40.48 82.81 40.27C83.19 40.06 83.63 39.95 84.07 39.95C84.51 39.94 84.94 40.05 85.32 40.27C85.68 40.48 85.97 40.79 86.16 41.16C86.37 41.56 86.48 42.02 86.48 42.47ZM75.84 40L76.72 40L76.72 42.07L79.49 42.07L79.49 40L80.37 40L80.37 44.89L79.49 44.89L79.49 42.84L76.72 42.84L76.72 44.89L75.84 44.89L75.84 40ZM73.47 42.34C73.76 42.41 74.02 42.55 74.23 42.76C74.32 42.86 74.39 42.97 74.43 43.09C74.48 43.21 74.5 43.34 74.5 43.47C74.5 43.76 74.39 44.03 74.2 44.24C73.98 44.48 73.7 44.66 73.39 44.77C73.01 44.9 72.62 44.96 72.22 44.96C71.87 44.96 71.51 44.91 71.16 44.81C70.84 44.72 70.53 44.58 70.24 44.39L70.51 43.72C70.76 43.87 71.02 43.99 71.31 44.06C71.6 44.15 71.91 44.19 72.22 44.19C72.56 44.2 72.9 44.13 73.21 43.97C73.32 43.92 73.42 43.83 73.48 43.73C73.55 43.63 73.58 43.51 73.58 43.39C73.59 43.28 73.56 43.17 73.51 43.08C73.45 42.99 73.38 42.91 73.28 42.86C73.03 42.72 72.74 42.66 72.45 42.67L71.55 42.67L71.55 42.05L72.39 42.05C72.66 42.06 72.92 42 73.15 41.87C73.24 41.82 73.31 41.76 73.36 41.67C73.41 41.59 73.44 41.49 73.44 41.39C73.44 41.28 73.41 41.18 73.35 41.08C73.29 40.99 73.2 40.92 73.1 40.87C72.82 40.74 72.51 40.68 72.2 40.69C71.67 40.7 71.14 40.83 70.67 41.07L70.43 40.39C71 40.09 71.64 39.94 72.29 39.94C72.65 39.93 73.01 39.99 73.35 40.1C73.63 40.19 73.88 40.35 74.08 40.57C74.25 40.76 74.35 41.01 74.35 41.26C74.35 41.5 74.27 41.73 74.11 41.91C73.94 42.11 73.71 42.26 73.46 42.34L73.47 42.34ZM64.52 40L65.4 40L65.4 43.55L68.39 39.99L69.19 39.99L69.19 44.88L68.31 44.88L68.31 41.33L65.33 44.89L64.52 44.89L64.52 40ZM60.75 44.21C61.04 44.21 61.33 44.14 61.59 44C61.83 43.86 62.02 43.66 62.16 43.41C62.29 43.15 62.36 42.86 62.36 42.57C62.37 42.36 62.34 42.14 62.27 41.94C62.19 41.74 62.08 41.55 61.94 41.4C61.71 41.16 61.42 41 61.1 40.93C60.78 40.87 60.45 40.9 60.15 41.03C59.85 41.16 59.6 41.37 59.42 41.65C59.25 41.92 59.16 42.24 59.17 42.57C59.17 42.86 59.24 43.15 59.38 43.41C59.51 43.65 59.71 43.86 59.95 44C60.2 44.14 60.49 44.22 60.79 44.22L60.75 44.21ZM60.91 40.15C61.33 40.14 61.75 40.25 62.12 40.45C62.47 40.65 62.76 40.94 62.96 41.29C63.17 41.68 63.27 42.11 63.27 42.54C63.28 42.99 63.17 43.42 62.95 43.81C62.74 44.17 62.43 44.46 62.06 44.65C61.65 44.86 61.2 44.96 60.75 44.95C60.38 44.97 60.02 44.91 59.69 44.76C59.36 44.61 59.06 44.39 58.83 44.11C58.34 43.41 58.11 42.56 58.16 41.71C58.11 40.88 58.33 40.05 58.77 39.35C59.24 38.75 59.91 38.34 60.66 38.22L62.88 37.72L63.01 38.53L60.96 38.98C60.42 39.07 59.93 39.32 59.54 39.7C59.2 40.1 59.01 40.62 59 41.15C59.21 40.84 59.49 40.59 59.81 40.42C60.16 40.25 60.55 40.17 60.94 40.19L60.91 40.15Z" fill="#DB1515" fill-opacity="1.000000" fill-rule="evenodd"/>
	</g>
</svg>
