<svg width="95.000000" height="20.000000" viewBox="0 0 95 20" fill="none" xmlns="http://www.w3.org/2000/svg" xmlns:xlink="http://www.w3.org/1999/xlink">
	<desc>
			Created with Pixso.
	</desc>
	<defs>
		<clipPath id="clip129_548">
			<rect id="logo (1) 1" rx="-0.500000" width="94.000000" height="19.000000" transform="translate(0.500000 0.500000)" fill="white" fill-opacity="0"/>
		</clipPath>
	</defs>
	<rect id="logo (1) 1" rx="-0.500000" width="94.000000" height="19.000000" transform="translate(0.500000 0.500000)" fill="#FFFFFF" fill-opacity="0"/>
	<g clip-path="url(#clip129_548)">
		<path id="Vector" d="M3.89 3.83L16.78 3.83L16.78 16.4L3.89 16.4L3.89 3.83ZM2.43 2.39L18.24 2.39L18.24 17.84L2.43 17.84L2.43 2.39Z" fill="#668A97" fill-opacity="1.000000" fill-rule="evenodd"/>
		<path id="Vector" d="M10.33 8.26C11.43 8.26 12.4 9.22 12.4 10.29C12.4 11.37 11.43 12.33 10.33 12.33C9.24 12.33 8.27 11.37 8.27 10.29C8.27 9.1 9.24 8.26 10.33 8.26Z" fill="#E3000F" fill-opacity="1.000000" fill-rule="evenodd"/>
		<path id="Vector" d="M88.55 6.22C88.55 5.5 88.55 5.02 88.43 4.79C88.3 4.55 88.18 4.43 87.94 4.43C87.7 4.43 87.58 4.55 87.45 4.67C87.33 4.79 87.33 5.26 87.33 6.1L87.33 13.41C87.33 14.37 87.33 14.85 87.45 15.08C87.58 15.32 87.7 15.44 87.94 15.44C88.18 15.44 88.43 15.32 88.43 15.08C88.55 14.85 88.55 14.25 88.55 13.29L88.55 6.22ZM92.56 11.37C92.56 12.93 92.56 14.01 92.44 14.73C92.32 15.32 92.08 15.92 91.71 16.52C91.35 17.12 90.74 17.48 90.13 17.72C89.4 17.96 88.67 18.2 87.82 18.2C86.97 18.2 86.24 18.08 85.51 17.84C84.78 17.6 84.29 17.12 83.93 16.64C83.56 16.04 83.32 15.44 83.2 14.85C83.07 14.25 83.07 13.05 83.07 11.49L83.07 8.74C83.07 7.18 83.07 6.1 83.2 5.38C83.32 4.79 83.56 4.19 83.93 3.59C84.29 2.99 84.9 2.63 85.51 2.39C86.24 2.15 86.97 1.91 87.82 1.91C88.67 1.91 89.4 2.03 90.13 2.27C90.86 2.51 91.35 2.99 91.71 3.47C92.08 4.07 92.32 4.67 92.44 5.26C92.56 5.86 92.56 7.06 92.56 8.62L92.56 11.37ZM77.24 4.91L77.24 8.86C77.36 8.86 77.48 8.86 77.48 8.86C77.84 8.86 78.09 8.74 78.21 8.62C78.33 8.38 78.45 8.02 78.45 7.42L78.45 6.22C78.45 5.74 78.33 5.38 78.21 5.14C78.21 5.02 77.84 4.91 77.24 4.91ZM73.1 2.27L77.24 2.27C78.33 2.27 79.18 2.39 79.79 2.51C80.4 2.63 80.88 2.99 81.13 3.23C81.37 3.59 81.61 3.95 81.74 4.43C81.86 4.91 81.86 5.62 81.86 6.58L81.86 7.9C81.86 8.86 81.74 9.58 81.49 10.05C81.25 10.53 80.88 10.89 80.4 11.13C79.79 11.37 79.06 11.49 78.21 11.49L77.11 11.49L77.11 17.72L72.98 17.72L72.98 2.27L73.1 2.27ZM71.52 17.84L67.38 17.84L67.38 5.38L66.17 5.38L66.17 17.84L62.03 17.84L62.03 2.27L71.52 2.27L71.52 17.84ZM51.45 13.65L51.45 11.49C51.45 10.89 51.33 10.41 51.21 10.29C51.08 10.17 50.72 10.05 50.11 10.05L50.11 15.2C50.6 15.2 50.96 15.08 51.21 14.96C51.45 14.85 51.45 14.37 51.45 13.65ZM55.58 14.13C55.58 15.32 55.46 16.16 55.1 16.64C54.85 17.12 54.37 17.48 53.76 17.6C53.15 17.72 52.18 17.84 50.84 17.84L46.1 17.84L46.1 2.27L54.12 2.27L54.12 5.02L50.23 5.02L50.23 7.66L50.84 7.66C52.06 7.66 53.03 7.78 53.76 7.9C54.37 8.02 54.85 8.38 55.22 8.86C55.58 9.34 55.71 10.17 55.71 11.25L55.71 14.13L55.58 14.13ZM40.14 4.91L40.14 8.86C40.26 8.86 40.38 8.86 40.38 8.86C40.74 8.86 40.99 8.74 41.11 8.62C41.35 8.38 41.35 8.02 41.35 7.42L41.35 6.22C41.35 5.74 41.23 5.38 41.11 5.14C40.99 5.02 40.62 4.91 40.14 4.91ZM36 2.27L40.14 2.27C41.23 2.27 42.08 2.39 42.69 2.51C43.3 2.63 43.79 2.99 44.03 3.23C44.27 3.59 44.51 3.95 44.64 4.43C44.76 4.91 44.76 5.62 44.76 6.58L44.76 7.9C44.76 8.86 44.64 9.58 44.39 10.05C44.15 10.53 43.79 10.89 43.3 11.13C42.69 11.37 41.96 11.49 41.11 11.49L40.14 11.49L40.14 17.72L36 17.72L36 2.27ZM30.77 12.21C30.53 10.41 30.4 8.26 30.16 5.62C29.8 8.62 29.43 10.77 29.43 12.21L30.77 12.21ZM32.96 2.27L35.27 17.84L31.01 17.84L30.77 15.08L29.31 15.08L29.07 17.84L24.81 17.84L26.88 2.27L32.96 2.27Z" fill="#668A97" fill-opacity="1.000000" fill-rule="evenodd"/>
	</g>
</svg>
