<svg width="442" height="458" viewBox="0 0 442 458" fill="none" xmlns="http://www.w3.org/2000/svg">
<g opacity="0.4">
<path d="M194.17 264.747C191.869 264.321 189.776 263.151 188.261 261.444C185.87 258.469 186.375 254.275 189.628 249.959L224.797 203.153C229.615 196.736 239.563 191.384 249.016 190.105C254.379 189.387 258.943 190.106 261.844 192.142L298.092 217.383C299.281 218.172 300.211 219.262 300.766 220.519C301.322 221.776 301.479 223.145 301.218 224.459C300.2 231.289 291.162 238.891 280.177 242.21L208.78 263.691C204.147 265.285 199.096 265.65 194.17 264.747ZM257.365 191.621C254.69 191.077 251.945 191.022 249.283 191.459C240.204 192.686 230.648 197.831 226.031 203.961L190.862 250.766C188.038 254.637 187.455 258.122 189.466 260.618C192.396 264.288 199.833 265.003 208.283 262.423L279.705 240.841C291.672 237.227 298.983 229.531 299.78 224.187C300.006 223.134 299.895 222.031 299.461 221.016C299.027 220.001 298.288 219.118 297.337 218.475L261.089 193.235C259.97 192.468 258.702 191.919 257.365 191.621Z" fill="white"/>
<path d="M191.247 270.786C189.053 270.33 187.048 269.232 185.527 267.652C182.8 264.649 182.937 260.403 185.938 255.709L219.241 203.718C226.918 191.689 248.708 183.807 258.583 189.383L301.381 213.394C302.77 214.11 303.913 215.19 304.665 216.497C305.417 217.804 305.745 219.278 305.605 220.732C305.179 227.951 296.122 236.592 284.548 240.866L208.518 268.863C201.921 271.248 195.854 271.886 191.247 270.786ZM254.714 189.414C244.565 186.99 226.918 194.323 220.433 204.463L187.13 256.453C184.466 260.609 184.259 264.273 186.574 266.77C190.09 270.616 198.614 270.918 207.805 267.543L283.836 239.547C296.47 234.889 303.648 226.312 303.984 220.593C304.11 219.397 303.846 218.182 303.227 217.106C302.607 216.03 301.661 215.145 300.512 214.565L257.714 190.554C256.774 190.042 255.763 189.657 254.714 189.414Z" fill="white"/>
<path d="M188.643 277.327C186.589 276.891 184.69 275.923 183.165 274.534C180.068 271.566 179.857 267.184 182.536 262.165L213.026 204.817C219.989 191.556 242.927 181.649 254.5 186.8L304.36 209.031C305.966 209.655 307.348 210.716 308.322 212.073C309.296 213.43 309.817 215.019 309.816 216.628C310.012 224.349 301.265 233.843 289.031 239.214L208.586 274.326C201.228 277.591 193.934 278.59 188.643 277.327ZM251.588 187.289C240.25 184.582 220.524 193.859 214.354 205.47L183.863 262.818C181.49 267.273 181.619 271.123 184.226 273.514C187.755 276.903 196.46 278.044 208.007 273.003L288.34 237.882C301.508 232.185 308.469 222.602 308.312 216.552C308.325 215.202 307.896 213.866 307.084 212.724C306.271 211.582 305.114 210.688 303.767 210.163L253.907 187.931C253.156 187.647 252.379 187.432 251.588 187.289Z" fill="white"/>
<path d="M186.615 284.482C184.687 284.06 182.886 283.199 181.373 281.975C177.916 279.08 177.263 274.557 179.556 269.163L206.4 206.365C212.578 191.926 236.518 179.73 249.804 184.317L307.181 204.135C309.029 204.644 310.681 205.675 311.91 207.083C313.138 208.491 313.882 210.208 314.038 211.996C314.906 220.09 306.386 230.627 293.785 237.061L209.546 280.037C201.103 284.422 192.662 285.925 186.615 284.482ZM247.937 185.286C235.25 182.256 213.397 193.837 207.776 206.976L180.932 269.775C178.89 274.592 179.409 278.482 182.34 280.95C186.557 284.486 196.367 285.219 208.793 278.885L293.032 235.909C306.629 228.97 313.23 218.505 312.555 212.155C312.42 210.632 311.785 209.171 310.739 207.971C309.693 206.771 308.287 205.892 306.714 205.456L249.337 185.638C248.875 185.503 248.406 185.391 247.933 185.302L247.937 185.286Z" fill="white"/>
<path d="M185.179 292.184C183.392 291.785 181.703 291.039 180.224 289.993C176.349 287.176 175.232 282.524 177.074 276.864L199.292 208.575C204.406 192.856 229.235 178.203 244.336 182.197L309.733 198.926C311.839 199.31 313.786 200.297 315.302 201.75C316.818 203.202 317.827 205.048 318.188 207.028C319.772 215.469 311.519 227.043 298.777 234.628L211.157 286.204C201.768 291.689 192.072 293.83 185.179 292.184ZM243.751 183.455C229.535 180.06 205.524 194.308 200.718 209.057L178.5 277.346C176.867 282.366 177.79 286.477 181.13 288.901C187.063 293.218 199.085 291.615 210.367 284.972L297.986 233.396C311.987 225.157 318.036 213.976 316.763 207.183C316.44 205.475 315.559 203.887 314.243 202.641C312.927 201.395 311.241 200.552 309.423 200.231L244.025 183.503L243.751 183.455Z" fill="white"/>
<path d="M184.455 300.411C182.847 300.039 181.311 299.409 179.916 298.549C175.579 295.834 173.932 291.091 175.245 285.18L191.743 211.441C195.538 194.47 221.107 177.27 238.127 180.237L311.97 193.13L311.811 193.799L311.97 193.13C317.448 194.084 321.055 197.067 322.24 201.435C324.61 210.329 317.167 222.733 303.978 231.555L213.655 292.406C203.321 299.381 192.302 302.284 184.455 300.411ZM312.825 194.731L311.745 194.473L237.902 181.58C221.852 178.774 196.788 195.688 193.191 211.751L176.693 285.49C175.414 290.861 176.868 294.975 180.691 297.373C187.711 301.754 200.882 299.24 212.75 291.253L303.086 230.511C317.198 221.008 322.674 208.876 320.795 201.832C320.344 200.067 319.348 198.449 317.932 197.185C316.515 195.921 314.744 195.068 312.843 194.735L312.825 194.731Z" fill="white"/>
<path d="M184.406 309.082C183.074 308.768 181.787 308.288 180.58 307.656C175.734 305.084 173.459 300.262 174.304 294.08L183.853 215.021C186.053 196.838 212.127 176.805 231.152 178.696L313.832 186.908C320.132 187.528 324.513 190.537 326.194 195.377C329.386 204.573 322.499 217.994 309.443 228.015L217.21 298.878C206.062 307.356 193.314 311.209 184.406 309.082ZM313.695 187.565L313.643 188.26L231.035 180.065C213.031 178.277 187.408 197.94 185.33 215.126L175.782 294.185C175.096 299.857 177.023 304.065 181.365 306.358C189.591 310.709 204 307.147 216.242 297.675L308.474 226.811C321.071 217.123 327.774 204.312 324.781 195.64C323.28 191.321 319.465 188.731 313.721 188.173L313.695 187.565Z" fill="white"/>
<path d="M185.449 318.28C184.404 318.033 183.383 317.695 182.4 317.268C176.956 314.89 174.021 309.963 174.108 303.53L175.412 219.319C175.711 199.94 202.023 176.905 223.143 177.509L315.009 180.135C322.226 180.337 327.546 183.394 329.732 188.672C333.789 198.146 327.67 212.581 314.858 223.81L221.688 305.395C209.913 315.704 195.635 320.712 185.449 318.28ZM315.015 180.826L315.022 181.517L223.156 178.892C203.132 178.319 177.203 201.021 176.92 219.378L175.616 303.589C175.524 309.562 178.079 313.85 183.014 315.965C192.594 320.144 208.075 315.353 220.669 304.321L313.839 222.736C326.22 211.882 332.192 198.065 328.38 189.074C326.329 184.27 321.709 181.629 314.988 181.421L315.015 180.826Z" fill="white"/>
<path d="M187.519 327.88C186.863 327.722 186.217 327.533 185.581 327.311C179.448 325.192 175.709 320.286 175.08 313.505L166.746 224.482C165.878 215.433 170.579 204.637 179.616 194.966C189.627 184.236 202.848 177.278 214.359 176.861L315.664 172.917L315.724 173.621L315.664 172.917C323.92 172.589 330.102 175.622 333.071 181.441C338.123 191.294 333.063 206.389 320.474 218.997L227.517 311.985C215.108 324.318 198.982 330.617 187.519 327.88ZM322.089 174.928C319.982 174.45 317.823 174.262 315.679 174.37L214.354 178.239C203.335 178.667 190.443 185.438 180.688 195.894C172.055 205.149 167.367 215.806 168.192 224.402L176.554 313.467C177.132 319.741 180.434 324.084 186.054 326.045C197.124 329.873 213.674 323.71 226.337 311.031L319.294 218.043C331.302 206.039 336.388 191.233 331.66 182.094C330.748 180.3 329.408 178.718 327.745 177.473C326.083 176.229 324.146 175.357 322.089 174.928Z" fill="white"/>
<path d="M190.795 337.84L190.381 337.741C187.029 336.902 183.991 335.144 181.663 332.696C179.335 330.247 177.826 327.222 177.332 324.016L157.741 230.59C155.832 221.434 159.42 210.125 167.604 199.56C177.412 186.889 191.525 178.182 204.457 176.831L315.362 165.242C324.725 164.259 332.005 167.235 335.8 173.658C341.864 183.735 337.876 199.758 325.88 213.551L234.568 318.479C221.855 333.126 203.95 340.981 190.795 337.84ZM315.52 165.934L315.621 166.63L204.716 178.22C192.176 179.522 178.454 188.023 168.87 200.393C160.932 210.645 157.436 221.57 159.262 230.352L178.853 323.778C180.231 330.367 184.365 334.731 190.794 336.407C203.465 339.663 220.976 331.944 233.465 317.597L324.852 212.598C336.476 199.247 340.414 183.831 334.647 174.267C331.146 168.445 324.411 165.74 315.693 166.647L315.52 165.934Z" fill="white"/>
<path d="M195.478 348.047C192.053 347.259 188.893 345.609 186.345 343.279C183.797 340.95 181.959 338.029 181.031 334.837L148.675 237.673C145.603 228.452 147.99 216.591 155.274 205.175C164.467 190.536 179.29 179.964 193.736 177.525L314.321 157.16L314.479 157.852L314.321 157.16C324.863 155.38 333.366 158.171 338.187 165.157C345.449 175.555 342.785 192.089 331.388 207.28L243.13 324.856C230.812 341.277 211.84 350.982 197.004 348.429L195.478 348.047ZM326.177 158.647C322.377 157.824 318.459 157.769 314.69 158.486L194.039 178.889C179.989 181.263 165.631 191.556 156.546 205.903C149.508 217.007 147.152 228.415 150.076 237.3L182.399 334.527C183.296 337.721 185.186 340.622 187.823 342.856C190.46 345.09 193.725 346.554 197.196 347.061C211.485 349.518 229.87 340.044 241.878 324.044L330.136 206.468C341.026 191.97 343.745 175.679 336.922 165.916C334.433 162.302 330.552 159.71 326.125 158.705L326.177 158.647Z" fill="white"/>
<path d="M201.644 358.573C198.241 357.778 195.068 356.224 192.399 354.047C189.73 351.869 187.645 349.133 186.324 346.074L139.481 245.77C135.147 236.495 136.259 224.082 142.542 211.754C150.83 195.485 166.315 182.614 182 178.967L312.221 148.648C323.858 145.945 333.94 148.653 339.913 156.074C348.38 166.601 347.103 183.943 336.686 200.288L253.297 330.962C241.794 348.992 222.217 360.674 205.764 359.239C204.378 359.122 202.999 358.899 201.644 358.573ZM312.335 149.365L312.534 150.049L182.313 180.368C167.028 183.933 151.846 196.488 143.808 212.428C137.702 224.409 136.6 236.382 140.754 245.296L187.597 345.6C189.074 349.042 191.581 352.035 194.809 354.211C198.036 356.386 201.842 357.648 205.755 357.84C221.7 359.172 240.687 347.808 251.934 330.212L335.312 199.588C345.421 183.736 346.737 166.951 338.643 156.938C332.979 149.892 323.781 147.465 312.534 150.049L312.335 149.365Z" fill="white"/>
<path d="M209.472 369.072C206.124 368.286 202.968 366.85 200.21 364.86C197.452 362.87 195.155 360.37 193.469 357.524L130.299 255.018C124.533 245.684 124.207 232.68 129.504 219.463C136.633 201.431 152.225 186.517 169.258 181.442L308.874 139.945L309.116 140.604L308.874 139.945C321.792 136.098 333.433 138.488 340.808 146.491C350.573 157.081 350.899 175.195 341.641 192.665L265.165 336.713C254.805 356.254 234.938 369.954 216.907 370.034C214.406 370.012 211.907 369.688 209.472 369.072ZM309.397 141.184L169.743 182.76C153.137 187.636 137.887 202.314 130.904 219.974C125.791 232.899 126.041 245.425 131.586 254.406L194.756 356.911C196.964 360.576 200.213 363.614 204.128 365.675C208.043 367.736 212.463 368.736 216.878 368.559C234.395 368.48 253.717 355.075 263.857 335.977L340.333 191.928C349.33 174.997 349.084 157.503 339.729 147.348C332.778 139.8 321.709 137.563 309.403 141.238L309.397 141.184Z" fill="white"/>
<path d="M219.036 379.702C212.456 378.144 206.625 374.414 202.631 369.207L121.279 265.578C113.908 256.197 112.072 242.585 116.233 228.23C121.921 208.582 137.355 191.613 155.536 184.991L304.239 130.899L304.521 131.55L304.239 130.899C318.459 125.736 331.789 127.663 340.838 136.225C352.202 146.967 354.264 165.3 346.254 184.077L278.904 341.798C269.86 362.997 250.511 378.518 230.754 380.414C226.857 380.826 222.89 380.585 219.036 379.702ZM326.987 130.336C319.485 128.788 311.732 129.446 304.8 132.218L156.097 186.31C138.317 192.763 123.253 209.377 117.649 228.675C113.605 242.616 115.357 255.783 122.449 264.815L203.819 368.448C210.035 376.368 219.54 380.141 230.555 379.093C249.786 377.248 268.658 362.056 277.59 341.325L344.923 183.6C352.711 165.354 350.777 147.599 339.85 137.262C336.314 133.871 331.854 131.463 326.991 130.32L326.987 130.336Z" fill="white"/>
<path d="M230.488 390.005C224.181 388.526 218.437 385.305 214.011 380.766L112.503 277.276C103.327 267.888 99.6834 253.562 102.658 238.039C106.691 216.952 121.702 198.009 140.796 189.712L298.002 121.718C313.5 115.021 328.685 116.348 339.674 125.391C352.617 136.05 356.671 154.965 350.245 174.756L294.565 346.245C287.334 368.62 268.4 386.308 247.537 390.292C241.948 391.409 236.117 391.311 230.488 390.005ZM298.348 122.261L298.675 122.887L141.52 190.982C122.797 199.083 108.137 217.669 104.185 238.333C101.297 253.416 104.744 267.289 113.652 276.365L215.16 379.856C223.253 388.118 234.641 391.333 247.234 388.929C267.619 384.955 286.07 367.699 293.185 345.809L348.865 174.321C355.128 155.056 351.242 136.712 338.761 126.428C328.249 117.783 313.655 116.526 298.727 122.988L298.348 122.261Z" fill="white"/>
<path d="M244.047 400.156C238.123 398.731 232.614 395.977 228.003 392.134L104.368 290.275C92.9847 280.89 87.363 265.844 89.0568 248.99C91.2321 226.681 105.468 205.802 125.302 195.755L290.194 112.498C306.895 104.107 324.068 104.671 337.38 114.021C352.011 124.464 358.34 143.887 353.712 164.673L312.347 349.765C307.074 373.421 289.481 392.826 267.539 399.187C260.029 401.55 251.895 401.886 244.047 400.156ZM290.573 113.066L290.939 113.683L126.014 197.075C106.562 206.877 92.65 227.356 90.5204 249.234C88.9122 265.648 94.3276 280.203 105.318 289.317L228.954 391.177C239.303 399.713 252.827 402.182 267.066 397.978C288.528 391.715 305.744 372.697 310.942 349.518L352.233 164.338C356.751 144.091 350.706 125.231 336.492 115.117C323.774 106.069 307.174 105.571 290.999 113.751L290.573 113.066Z" fill="white"/>
<path d="M259.519 409.613C254.181 408.341 249.117 406.135 244.596 403.115L96.8857 304.596C83 295.339 75.1165 279.488 75.2698 261.117C75.347 249.484 78.4515 238.139 84.3142 228.065C90.1769 217.991 98.6212 209.49 108.916 203.301L280.547 103.246C298.106 93.0091 317.867 92.5289 333.402 101.967C350.333 112.252 358.857 131.563 356.21 153.617L332.307 352.196C329.382 376.536 313.117 398.027 290.878 406.916C281.14 411.031 270.12 411.979 259.519 409.613ZM280.993 103.847L281.404 104.44L109.678 204.491C99.5878 210.557 91.3101 218.888 85.5616 228.761C79.8132 238.634 76.7671 249.753 76.6872 261.155C76.5336 279.048 84.1768 294.471 97.6344 303.449L245.344 401.968C258.196 410.535 274.538 411.873 290.129 405.588C311.909 396.872 327.842 375.815 330.709 351.956L354.699 153.416C357.276 131.893 349.069 113.17 332.595 103.118C317.646 94.0144 298.403 94.4769 281.332 104.423L280.993 103.847Z" fill="white"/>
<path d="M277.226 418.472C272.656 417.379 268.249 415.702 264.13 413.489L90.212 320.242C73.3398 311.227 62.8729 294.564 61.3135 274.44C60.3806 262.371 62.6717 250.376 67.9789 239.542C73.2861 228.708 81.4414 219.378 91.7051 212.4L268.784 94.1776C287.239 81.8564 309.21 80.0826 327.566 89.4165C346.766 99.1994 358.023 118.774 357.673 141.801L354.538 353.241C354.238 378.455 340.028 401.303 317.631 412.93C304.532 419.776 290.381 421.613 277.226 418.472ZM269.239 94.7458L269.693 95.314L92.6136 213.536C82.5498 220.38 74.5532 229.529 69.3493 240.153C64.1453 250.776 61.8986 262.539 62.8128 274.374C64.3478 293.961 74.6025 310.237 90.9307 318.981L264.82 412.345C280.777 420.894 299.732 420.681 316.848 411.824C338.788 400.441 352.668 377.939 353.028 353.27L356.176 141.78C356.51 119.297 345.557 100.202 326.883 90.6857C309.057 81.6022 287.662 83.3543 269.663 95.3599L269.239 94.7458Z" fill="white"/>
<path d="M297.078 426.393C293.56 425.55 290.119 424.415 286.797 423.001L84.6988 337.242C64.5425 328.681 50.9643 311.187 47.3183 289.204C45.3308 276.828 46.7251 264.288 51.3697 252.765C56.0142 241.242 63.7559 231.117 73.8643 223.345L254.787 85.5485L255.267 86.0876L254.787 85.5485C273.905 70.9988 298.108 67.6007 319.522 76.5507C341.292 85.6035 355.632 105.33 357.892 129.299L379.014 352.842C380.202 365.351 377.949 377.829 372.472 389.08C366.995 400.33 358.477 409.976 347.735 417.093C332.203 427.283 314.21 430.483 297.078 426.393ZM309.509 74.6726C291.171 70.2942 271.705 74.4873 255.809 86.606L74.8568 224.449C64.9582 232.066 57.3763 241.985 52.8247 253.272C48.2732 264.559 46.9017 276.842 48.8394 288.966C52.3591 310.441 65.6452 327.565 85.3214 335.906L287.42 421.664C306.958 429.866 328.627 427.843 346.958 415.882C357.491 408.9 365.842 399.438 371.211 388.403C376.58 377.369 378.787 365.131 377.62 352.863L356.447 129.378C354.249 105.867 340.235 86.6065 318.991 77.8209C315.924 76.5214 312.751 75.4681 309.509 74.6726Z" fill="white"/>
<path d="M318.657 433.046C316.701 432.579 314.752 432.031 312.81 431.402L80.7 355.63C57.0161 347.906 39.3527 329.118 33.4643 305.45C30.297 292.899 30.68 279.897 34.5748 267.75C38.4695 255.602 45.7393 244.734 55.6553 236.236L238.563 77.484L239.087 77.9982L238.563 77.484C258.007 60.6075 284.368 55.3374 309.057 63.3898C333.747 71.4422 351.591 91.2278 356.853 116.09L406.069 350.636C408.788 363.26 407.941 376.222 403.614 388.222C399.287 400.223 391.632 410.841 381.414 419.014C373.086 425.932 363.039 430.818 352.118 433.26C341.196 435.702 329.721 435.628 318.657 433.046ZM302.662 63.0121C280.221 57.654 256.962 63.2401 239.453 78.4569L56.6177 237.227C46.9011 245.573 39.7826 256.241 35.9754 268.161C32.1683 280.081 31.8062 292.835 34.9254 305.145C40.6755 328.355 57.9607 346.734 81.1487 354.304L313.259 430.077C336.447 437.647 361.514 433.094 380.332 417.889C390.362 409.87 397.877 399.45 402.125 387.671C406.372 375.893 407.202 363.172 404.532 350.782L355.316 116.235C350.196 91.8141 332.692 72.5165 308.534 64.6265C306.611 64.0258 304.653 63.4877 302.662 63.0121Z" fill="white"/>
<path d="M342.382 438.354L78.3693 375.316C64.7486 372.067 52.1613 365.54 41.8728 356.394C31.5844 347.247 23.9575 335.803 19.7589 323.21C15.5604 310.618 14.9382 297.323 17.9548 284.66C20.9715 271.998 27.5208 260.415 36.9441 251.076L219.587 70.0354C228.963 60.6463 240.92 53.8489 254.232 50.3405C267.545 46.8322 281.732 46.7391 295.34 50.071C308.994 53.2506 321.621 59.7543 331.92 68.9136C342.22 78.0729 349.822 89.5573 353.944 102.186L435.313 346.264C439.513 358.856 440.137 372.152 437.121 384.815C434.106 397.477 427.558 409.061 418.136 418.401C408.713 427.741 396.749 434.508 383.445 438.021C370.141 441.535 355.967 441.671 342.348 438.417L342.382 438.354ZM220.133 70.537L220.683 71.022L38.0324 252.096C28.7893 261.261 22.3658 272.627 19.4077 285.052C16.4495 297.476 17.0607 310.522 21.18 322.877C25.2993 335.232 32.7815 346.462 42.8748 355.437C52.968 364.413 65.3168 370.819 78.6801 374.011L342.692 437.049C356.055 440.235 369.961 440.096 383.011 436.645C396.062 433.194 407.798 426.552 417.04 417.388C426.283 408.224 432.706 396.86 435.665 384.437C438.624 372.014 438.015 358.97 433.898 346.616L352.536 102.504C348.416 90.149 340.933 78.9193 330.838 69.9437C320.744 60.9682 308.394 54.5631 295.03 51.3721C281.665 48.1811 267.758 48.3168 254.704 51.7653C241.65 55.2138 229.911 61.8537 220.665 71.0177L220.133 70.537Z" fill="white"/>
</g>
</svg>
